<svg width="154" height="27" viewBox="0 0 154 27" fill="none" xmlns="http://www.w3.org/2000/svg">
<g clip-path="url(#clip0_25_1263)">
<path d="M29.2428 21.8789C30.4207 23.0519 30.4207 24.9478 29.2428 26.1208C28.065 27.2937 26.161 27.2937 24.9832 26.1208L15.0634 16.2415L5.1426 26.1208C4.56682 26.6941 3.79566 27 3.0123 27C2.62343 27 2.23175 26.928 1.85885 26.7718C0.734523 26.3097 0 25.2116 0 24.0003V2.99969C0 1.3413 1.34976 0 3.0123 0C4.67484 0 6.02459 1.3413 6.02459 2.99969V16.7578L12.9331 9.8783C13.2214 9.5874 13.5567 9.37134 13.9156 9.22449C14.265 9.08044 14.651 9 15.054 9H27.1135C28.776 9 30.1258 10.3413 30.1258 11.9997C30.1258 13.6581 28.776 15.0003 27.1135 15.0003H22.3353L29.2438 21.8789H29.2428Z" fill="black"/>
<path d="M61.7601 18C61.7601 22.9621 57.7051 27 52.7222 27H40.6721C35.6892 27 31.6343 22.9621 31.6343 18C31.6343 13.0379 35.6892 9 40.6721 9H52.7222C57.7051 9 61.7601 13.0379 61.7601 18ZM55.7355 18C55.7355 16.3444 54.3829 15.0003 52.7222 15.0003H40.6721C39.0124 15.0003 37.6589 16.3444 37.6589 18C37.6589 19.6556 39.0114 20.9997 40.6721 20.9997H52.7222C54.3819 20.9997 55.7355 19.6565 55.7355 18Z" fill="black"/>
<path d="M94.5225 2.99969V23.9994C94.5225 25.2144 93.787 26.3097 92.6636 26.7708C92.2898 26.927 91.8981 26.9991 91.5092 26.9991C90.7259 26.9991 89.9547 26.696 89.3789 26.1208L78.2117 15.0003H73.4336C71.7739 15.0003 70.4203 16.3444 70.4203 18C70.4203 19.6556 71.7729 20.9997 73.4336 20.9997H79.4591C81.1217 20.9997 82.4714 22.341 82.4714 23.9994C82.4714 25.6578 81.1217 26.9991 79.4591 26.9991H73.4336C68.4507 26.9991 64.3958 22.9621 64.3958 18C64.3958 13.0379 68.4507 9 73.4336 9H79.4591C80.2575 9 81.0258 9.31709 81.5885 9.87924L88.496 16.7588V2.99969C88.496 1.3413 89.8458 0 91.5083 0C93.1708 0 94.5206 1.34411 94.5206 2.99969H94.5225Z" fill="black"/>
<path d="M120.376 26.1208C119.789 26.7063 119.018 26.9991 118.247 26.9991C117.476 26.9991 116.705 26.7082 116.117 26.1208L104.949 15.0003H100.171C98.5077 15.0003 97.158 13.659 97.158 11.9997C97.158 10.3404 98.5077 9 100.171 9H106.197C106.995 9 107.763 9.31709 108.326 9.87924L120.376 21.8789C121.554 23.0519 121.554 24.9506 120.376 26.1208ZM103.184 2.99969C103.184 1.34317 104.533 0 106.198 0C107.862 0 109.21 1.34317 109.21 2.99969C109.21 4.6562 107.861 5.99938 106.198 5.99938C104.534 5.99938 103.184 4.6562 103.184 2.99969Z" fill="black"/>
<path d="M153.116 21.8794C154.294 23.0523 154.294 24.9483 153.116 26.1212C152.529 26.7068 151.758 26.9995 150.986 26.9995C150.214 26.9995 149.444 26.7086 148.856 26.1212L143.714 21.0002H134.158L129.016 26.1212C127.838 27.2942 125.934 27.2942 124.756 26.1212C123.578 24.9483 123.578 23.0523 124.756 21.8794L128.651 18.0005L124.756 14.1215C123.578 12.9486 123.578 11.0526 124.756 9.8797C125.934 8.70677 127.838 8.70677 129.016 9.8797L134.158 15.0008H143.714L148.856 9.8797C150.034 8.70677 151.938 8.70677 153.116 9.8797C154.294 11.0526 154.294 12.9486 153.116 14.1215L149.221 18.0005L153.116 21.8794Z" fill="#1FFF1A"/>
</g>
<defs>
<clipPath id="clip0_25_1263">
<rect width="154" height="27" fill="white"/>
</clipPath>
</defs>
</svg>
